<svg version="1.1" xmlns="http://www.w3.org/2000/svg" viewBox="0 0 1290.5 2009" width="1290.5" height="2009">
  <!-- svg-source:excalidraw -->
  
  <defs>
    <style class="style-fonts">
      @font-face {
        font-family: "Virgil";
        src: url("https://excalidraw.com/Virgil.woff2");
      }
      @font-face {
        font-family: "Cascadia";
        src: url("https://excalidraw.com/Cascadia.woff2");
      }
    </style>
    
  </defs>
  <rect x="0" y="0" width="1290.5" height="2009" fill="#ffffff"></rect><g stroke-linecap="round" transform="translate(230 247.5) rotate(0 150 214.5)"><path d="M32 0 M32 0 C122.68 2.63, 211.34 2.47, 268 0 M32 0 C109.25 1, 186.19 1.23, 268 0 M268 0 C290.15 -1.67, 298.56 11.39, 300 32 M268 0 C290.37 1.96, 300.57 10.6, 300 32 M300 32 C297.04 147.54, 297.91 266.29, 300 397 M300 32 C300.09 146.16, 300.78 259.24, 300 397 M300 397 C298.9 416.56, 290.35 428.04, 268 429 M300 397 C299.08 417.56, 291.32 427.77, 268 429 M268 429 C213.1 427.44, 156.32 429.74, 32 429 M268 429 C190.49 430.96, 113.44 430.62, 32 429 M32 429 C9.04 429.79, 0.22 417.53, 0 397 M32 429 C9.87 428.09, 0.77 416.83, 0 397 M0 397 C0.19 313.61, -1.64 230.9, 0 32 M0 397 C-0.22 321.29, -0.87 246.22, 0 32 M0 32 C-0.01 11.37, 12.31 1.48, 32 0 M0 32 C-0.23 11.61, 12.27 -0.55, 32 0" stroke="#1e1e1e" stroke-width="1" fill="none"></path></g><g stroke-linecap="round" transform="translate(570 250.5) rotate(0 150 214.5)"><path d="M32 0 M32 0 C122.9 -1.74, 214.21 -1.45, 268 0 M32 0 C91.37 -0.75, 152.89 -0.64, 268 0 M268 0 C288.11 0.58, 300.31 8.95, 300 32 M268 0 C289.06 -0.17, 299.74 9.06, 300 32 M300 32 C299.62 108.31, 298.42 183.46, 300 397 M300 32 C300.95 121.6, 300.99 211.74, 300 397 M300 397 C301.22 418.95, 287.54 429.69, 268 429 M300 397 C299.52 419.96, 289.15 430.15, 268 429 M268 429 C195.75 429.39, 124.13 429.33, 32 429 M268 429 C199.08 430, 130.48 430.1, 32 429 M32 429 C11.42 428.15, -0.79 420.08, 0 397 M32 429 C11.77 429.27, 1.76 416.77, 0 397 M0 397 C-0.64 317.62, -1.45 236.03, 0 32 M0 397 C-0.23 307.82, -1.1 218.86, 0 32 M0 32 C-1.35 8.85, 10.24 -1.23, 32 0 M0 32 C-0.52 9.06, 10.94 0.42, 32 0" stroke="#1e1e1e" stroke-width="1" fill="none"></path></g><g stroke-linecap="round" transform="translate(902 249.5) rotate(0 150 214.5)"><path d="M32 0 M32 0 C105.76 -2.91, 181.42 -2.41, 268 0 M32 0 C97.61 0.03, 163.7 -0.6, 268 0 M268 0 C289.29 -0.28, 298.32 8.71, 300 32 M268 0 C288.67 -0.5, 300.39 12.6, 300 32 M300 32 C300.91 154.69, 300.59 275.86, 300 397 M300 32 C300.14 154.93, 300.34 277.17, 300 397 M300 397 C300.04 419.12, 289.43 429.03, 268 429 M300 397 C299.91 420.28, 290.79 427.49, 268 429 M268 429 C208.49 430.18, 150.52 431.58, 32 429 M268 429 C184.33 429.14, 101.58 430.02, 32 429 M32 429 C10.73 428.1, -0.96 419.38, 0 397 M32 429 C9 430.09, 2.16 418.76, 0 397 M0 397 C-3.05 285.56, -1.76 175.04, 0 32 M0 397 C1.12 261.63, 1.73 126.13, 0 32 M0 32 C-1.26 9.05, 9.62 -1.61, 32 0 M0 32 C2.07 11.39, 11.81 0.48, 32 0" stroke="#1e1e1e" stroke-width="1" fill="none"></path></g><g transform="translate(324 314.5) rotate(0 55.608642578125 24.292464272832945)"><text x="0" y="0" font-family="Virgil, Segoe UI Emoji" font-size="38.86794283653271px" fill="#1e1e1e" text-anchor="start" style="white-space: pre;" direction="ltr" dominant-baseline="text-before-edge">Trivia</text></g><g stroke-linecap="round" transform="translate(259 430.5) rotate(0 119 25)"><path d="M12.5 0 M12.5 0 C69.99 -0.88, 130.56 -1.34, 225.5 0 M12.5 0 C57.27 0.37, 100.87 -0.25, 225.5 0 M225.5 0 C233.09 1.2, 236.84 3.3, 238 12.5 M225.5 0 C233.78 -1.19, 236.12 3.09, 238 12.5 M238 12.5 C238.27 19.73, 237.01 26.33, 238 37.5 M238 12.5 C238.31 22.94, 237.32 31.29, 238 37.5 M238 37.5 C236.15 47.57, 232.41 51.45, 225.5 50 M238 37.5 C235.85 47.66, 233.23 52.06, 225.5 50 M225.5 50 C149.47 50.04, 72.72 52.61, 12.5 50 M225.5 50 C179.35 52.02, 132.76 51.74, 12.5 50 M12.5 50 C5.61 50.24, 1.8 46.1, 0 37.5 M12.5 50 C3.42 48.67, 0.63 48.13, 0 37.5 M0 37.5 C-1.69 31.52, -1.46 26.68, 0 12.5 M0 37.5 C1.03 28.83, 0.15 19.7, 0 12.5 M0 12.5 C1.47 3.84, 2.33 -0.09, 12.5 0 M0 12.5 C0.25 5.07, 2.73 -0.18, 12.5 0" stroke="#1e1e1e" stroke-width="1" fill="none"></path></g><g transform="translate(306 442.5) rotate(0 77.29993438720703 12.5)"><text x="0" y="0" font-family="Virgil, Segoe UI Emoji" font-size="20px" fill="#1e1e1e" text-anchor="start" style="white-space: pre;" direction="ltr" dominant-baseline="text-before-edge">Insira seu nome</text></g><g stroke-linecap="round" transform="translate(962.9990250055803 403.27071301069856) rotate(0 92.33683387910378 18.06437183685415)"><path d="M9.03 0 M9.03 0 C50.44 -1.82, 95.94 -0.23, 175.64 0 M9.03 0 C43.53 -1.78, 79 -1.46, 175.64 0 M175.64 0 C180.35 -0.46, 183.4 1.49, 184.67 9.03 M175.64 0 C181.32 0.85, 185.53 2.21, 184.67 9.03 M184.67 9.03 C184.49 14.22, 185.47 17.79, 184.67 27.1 M184.67 9.03 C185.43 15.42, 184.77 20.51, 184.67 27.1 M184.67 27.1 C182.94 31.42, 179.78 35.12, 175.64 36.13 M184.67 27.1 C186.53 31.29, 180.29 34.76, 175.64 36.13 M175.64 36.13 C127.94 35.97, 83.45 36.06, 9.03 36.13 M175.64 36.13 C111.19 37.99, 46.44 37.73, 9.03 36.13 M9.03 36.13 C3.74 34.98, -0.15 34.57, 0 27.1 M9.03 36.13 C5.09 38.18, 0.51 33.67, 0 27.1 M0 27.1 C-0.04 21.18, 0.77 15.57, 0 9.03 M0 27.1 C0.39 21.96, -0.83 15.15, 0 9.03 M0 9.03 C-1.47 1.05, 4.72 0.08, 9.03 0 M0 9.03 C1.17 1.63, 1.8 -1.87, 9.03 0" stroke="#1e1e1e" stroke-width="1" fill="none"></path></g><g transform="translate(349 515.5) rotate(0.27195340032364035 27.85997772216797 12.5)"><text x="0" y="0" font-family="Virgil, Segoe UI Emoji" font-size="20px" fill="#1e1e1e" text-anchor="start" style="white-space: pre;" direction="ltr" dominant-baseline="text-before-edge">Jogar</text></g><g stroke-linecap="round" transform="translate(595 286.5) rotate(0 132 39)"><path d="M19.5 0 M19.5 0 C83.97 -1.93, 144.4 -1.55, 244.5 0 M19.5 0 C70.86 -1.94, 122.68 -1.71, 244.5 0 M244.5 0 C255.54 -1.22, 265.16 5.88, 264 19.5 M244.5 0 C257.09 2.12, 265.86 5.66, 264 19.5 M264 19.5 C263.4 31.75, 262.53 43.34, 264 58.5 M264 19.5 C264.42 34.63, 263.77 49.67, 264 58.5 M264 58.5 C264.53 72.99, 257.79 77.51, 244.5 78 M264 58.5 C263.37 73.61, 255.57 79.83, 244.5 78 M244.5 78 C166.53 78.07, 92.03 77.56, 19.5 78 M244.5 78 C170.06 78.54, 95.01 79.95, 19.5 78 M19.5 78 C5.14 77.26, 1.93 71.04, 0 58.5 M19.5 78 C5.24 78.48, -1.27 71.68, 0 58.5 M0 58.5 C-0.95 43.36, -1.34 29.44, 0 19.5 M0 58.5 C1.3 49.96, -0.52 41.83, 0 19.5 M0 19.5 C-1.04 6.67, 7.77 1.67, 19.5 0 M0 19.5 C-0.72 4.5, 7.13 -1.75, 19.5 0" stroke="#1e1e1e" stroke-width="1" fill="none"></path></g><g transform="translate(674 311.5) rotate(0 51.76995849609375 12.5)"><text x="0" y="0" font-family="Virgil, Segoe UI Emoji" font-size="20px" fill="#1e1e1e" text-anchor="start" style="white-space: pre;" direction="ltr" dominant-baseline="text-before-edge">Pergunta 1</text></g><g stroke-linecap="round" transform="translate(598 405.5) rotate(0 127.5 117.5)"><path d="M32 0 M32 0 C92.43 2.04, 150.06 1.65, 223 0 M32 0 C90.73 -0.25, 146.99 0.9, 223 0 M223 0 C245.6 -1.85, 254.54 11.91, 255 32 M223 0 C246.29 0.17, 255.78 10.3, 255 32 M255 32 C256.88 94.04, 255.43 158.72, 255 203 M255 32 C255.57 88.05, 254.97 145.82, 255 203 M255 203 C253.86 223.28, 245.98 233.4, 223 235 M255 203 C257.27 224.36, 246.55 234.59, 223 235 M223 235 C180.86 232.12, 143.31 234.08, 32 235 M223 235 C155.3 236.24, 85.07 235.87, 32 235 M32 235 C10.16 236, -1.77 225.96, 0 203 M32 235 C12.26 236.85, 1.22 225.4, 0 203 M0 203 C1.13 161.85, 2.06 124.37, 0 32 M0 203 C-0.72 154.16, -0.49 105.98, 0 32 M0 32 C0.59 9.7, 10.97 -1.24, 32 0 M0 32 C-2.15 8.64, 11.96 -1.46, 32 0" stroke="#1e1e1e" stroke-width="1" fill="none"></path></g><g stroke-linecap="round" transform="translate(616 438.5) rotate(0 9.5 9.5)"><path d="M5.23 0.21 C7.02 -0.69, 11.02 -0.97, 12.92 -0.23 C14.81 0.52, 15.67 2.96, 16.62 4.66 C17.58 6.36, 18.68 7.98, 18.65 9.98 C18.61 11.98, 17.73 15.01, 16.41 16.63 C15.09 18.26, 12.95 19.68, 10.72 19.73 C8.49 19.78, 4.81 18.21, 3.04 16.94 C1.28 15.67, 0.54 13.95, 0.14 12.1 C-0.25 10.26, -0.46 7.66, 0.66 5.87 C1.79 4.07, 5.9 2.15, 6.89 1.33 C7.89 0.51, 6.52 1.02, 6.62 0.95 M4.79 1.43 C6.64 0.58, 9.64 1.06, 11.79 1.23 C13.93 1.4, 16.42 1, 17.65 2.45 C18.89 3.91, 19.48 7.69, 19.18 9.96 C18.88 12.23, 17.07 14.42, 15.87 16.08 C14.67 17.73, 13.7 19.83, 11.99 19.88 C10.28 19.93, 7.44 17.68, 5.6 16.39 C3.75 15.11, 1.93 13.75, 0.91 12.17 C-0.11 10.59, -1.02 8.73, -0.52 6.9 C-0.01 5.08, 3.15 2, 3.95 1.22 C4.75 0.45, 3.85 1.89, 4.3 2.24" stroke="#1e1e1e" stroke-width="1" fill="none"></path></g><g stroke-linecap="round" transform="translate(615 485.5) rotate(0 9.5 9.5)"><path d="M12.81 0.63 C14.52 1.33, 16.09 2.99, 17.23 4.84 C18.37 6.69, 19.78 9.88, 19.64 11.73 C19.51 13.58, 18.04 14.77, 16.41 15.96 C14.78 17.14, 12.16 18.57, 9.86 18.82 C7.57 19.07, 4.38 18.72, 2.64 17.46 C0.9 16.21, -0.24 13.29, -0.57 11.29 C-0.89 9.29, -0.57 7.08, 0.69 5.45 C1.94 3.82, 4.79 2.3, 6.96 1.52 C9.14 0.73, 12.28 0.45, 13.75 0.74 C15.22 1.02, 15.94 3.08, 15.78 3.23 M7.8 0.14 C9.72 -0.37, 12.8 0.17, 14.74 1.34 C16.67 2.51, 18.78 4.81, 19.41 7.15 C20.04 9.49, 19.58 13.47, 18.52 15.38 C17.45 17.28, 14.8 17.96, 13.03 18.58 C11.26 19.2, 9.75 19.94, 7.9 19.09 C6.06 18.25, 3.05 15.13, 1.94 13.52 C0.82 11.9, 1.05 11.33, 1.23 9.4 C1.4 7.46, 1.49 3.3, 2.97 1.9 C4.45 0.5, 8.81 1.32, 10.1 1.01 C11.39 0.7, 10.8 0.14, 10.7 0.02" stroke="#1e1e1e" stroke-width="1" fill="none"></path></g><g stroke-linecap="round" transform="translate(614 530.5) rotate(0 9.5 9.5)"><path d="M10.32 -0.3 C12.41 -0.11, 14.93 1.93, 16.37 3.39 C17.81 4.84, 18.61 6.49, 18.96 8.42 C19.3 10.36, 19.5 13.41, 18.46 15 C17.42 16.58, 14.69 17.25, 12.71 17.94 C10.74 18.63, 8.57 19.88, 6.61 19.15 C4.64 18.42, 1.88 15.4, 0.91 13.56 C-0.06 11.72, 0.16 10.06, 0.78 8.11 C1.41 6.16, 3.07 3.26, 4.68 1.85 C6.28 0.43, 9.4 0, 10.43 -0.39 C11.46 -0.77, 10.86 -0.83, 10.87 -0.46 M9.51 -0.61 C11.32 -0.56, 13.24 2.1, 15.05 3.89 C16.87 5.68, 19.98 8.38, 20.42 10.14 C20.87 11.89, 19.25 12.83, 17.71 14.4 C16.16 15.98, 13.04 18.91, 11.14 19.6 C9.24 20.29, 7.9 19.71, 6.29 18.55 C4.68 17.39, 2.54 14.8, 1.47 12.65 C0.41 10.5, -0.57 7.35, -0.09 5.65 C0.39 3.95, 2.73 3.62, 4.35 2.47 C5.97 1.31, 8.48 -0.99, 9.62 -1.27 C10.77 -1.56, 11 0.38, 11.22 0.73" stroke="#1e1e1e" stroke-width="1" fill="none"></path></g><g stroke-linecap="round" transform="translate(630 576.5) rotate(0 102 18.5)"><path d="M9.25 0 M9.25 0 C55.42 0.04, 101.89 1.02, 194.75 0 M9.25 0 C73.95 0.57, 140.35 -0.9, 194.75 0 M194.75 0 C202.36 -1.17, 202.27 4.91, 204 9.25 M194.75 0 C202.57 1.07, 202.77 5.14, 204 9.25 M204 9.25 C204.95 13.87, 202.78 21.83, 204 27.75 M204 9.25 C203.42 14.83, 204.53 21.58, 204 27.75 M204 27.75 C204.49 33.92, 200.98 37.55, 194.75 37 M204 27.75 C205.11 34.88, 202.19 37.89, 194.75 37 M194.75 37 C147.93 36.15, 97.15 35.77, 9.25 37 M194.75 37 C150.45 37.58, 107.78 37.61, 9.25 37 M9.25 37 C4.2 38.86, -1.02 35.45, 0 27.75 M9.25 37 C1.53 36.03, 0.94 31.66, 0 27.75 M0 27.75 C0.31 21.45, 0.01 13.56, 0 9.25 M0 27.75 C0.95 20.39, -0.35 13.51, 0 9.25 M0 9.25 C-0.2 4.79, 2.92 0.43, 9.25 0 M0 9.25 C1.44 1.12, 3.52 -1.03, 9.25 0" stroke="#1e1e1e" stroke-width="1" fill="none"></path></g><g stroke-linecap="round" transform="translate(931 284.5) rotate(0 123 173)"><path d="M32 0 M32 0 C69.43 1.53, 106.26 1.2, 214 0 M32 0 C86.15 1.82, 140.21 0.42, 214 0 M214 0 C235.93 -0.2, 247.71 10.5, 246 32 M214 0 C235.83 1.44, 244.03 11.11, 246 32 M246 32 C245.49 104.85, 244.77 176.48, 246 314 M246 32 C245.63 130.2, 245.57 228.66, 246 314 M246 314 C245.14 337.29, 234.81 344.25, 214 346 M246 314 C245.63 335.57, 234.79 346.82, 214 346 M214 346 C155.46 346.7, 96.75 344.53, 32 346 M214 346 C142.12 343.87, 70.97 345.31, 32 346 M32 346 C11.77 344.58, -0.9 336.62, 0 314 M32 346 C12.74 346.32, 0.46 337.5, 0 314 M0 314 C-0.59 241.87, -0.26 169.03, 0 32 M0 314 C0.29 227.48, 0.07 139.08, 0 32 M0 32 C1.4 9.53, 12.54 0.07, 32 0 M0 32 C-1.32 10.88, 10.72 -0.21, 32 0" stroke="#1e1e1e" stroke-width="1" fill="none"></path></g><g transform="translate(966 408.5) rotate(0 88.4599380493164 12.5)"><text x="0" y="0" font-family="Virgil, Segoe UI Emoji" font-size="20px" fill="#1e1e1e" text-anchor="start" style="white-space: pre;" direction="ltr" dominant-baseline="text-before-edge">Voce acertou 2/3</text></g><g transform="translate(599 147.5) rotate(0 109.49991607666016 12.5)"><text x="0" y="0" font-family="Virgil, Segoe UI Emoji" font-size="20px" fill="#1e1e1e" text-anchor="start" style="white-space: pre;" direction="ltr" dominant-baseline="text-before-edge">3 telas iguais a essa</text></g><g stroke-linecap="round"><g transform="translate(704 184.5) rotate(0 0.2054568619356587 22.939105811961923)"><path d="M1.17 -1.17 C1.04 6.29, -0.78 37.83, -0.91 45.68 M0.33 0.83 C0.58 8.39, 1.41 39.32, 1.32 47.05" stroke="#1e1e1e" stroke-width="1" fill="none"></path></g><g transform="translate(704 184.5) rotate(0 0.2054568619356587 22.939105811961923)"><path d="M-8.72 23.99 C-4.79 32.3, -2.02 36.84, -0.11 48.33 M-7.63 25.08 C-4.94 32.56, -1.75 37.61, 0.52 46.8" stroke="#1e1e1e" stroke-width="1" fill="none"></path></g><g transform="translate(704 184.5) rotate(0 0.2054568619356587 22.939105811961923)"><path d="M7.01 23.83 C6.36 32.34, 4.56 36.93, -0.11 48.33 M8.1 24.92 C6.24 32.49, 4.88 37.6, 0.52 46.8" stroke="#1e1e1e" stroke-width="1" fill="none"></path></g></g><mask></mask><g stroke-linecap="round" transform="translate(323 506.5) rotate(0 52 19.5)"><path d="M9.75 0 M9.75 0 C33.87 -2.73, 56.66 -0.37, 94.25 0 M9.75 0 C40.82 1.12, 73.03 0.03, 94.25 0 M94.25 0 C99.93 -1.84, 103.24 3.21, 104 9.75 M94.25 0 C100.05 1.57, 105.09 3.26, 104 9.75 M104 9.75 C105.47 15.51, 105.47 19.49, 104 29.25 M104 9.75 C104.75 15.75, 104.21 23.39, 104 29.25 M104 29.25 C104.02 36.3, 101.93 40.05, 94.25 39 M104 29.25 C104.51 35.03, 101.92 39.07, 94.25 39 M94.25 39 C76.59 38.54, 54.15 39.32, 9.75 39 M94.25 39 C75.85 38.98, 55.92 38.24, 9.75 39 M9.75 39 C5.16 37.12, -0.64 35.04, 0 29.25 M9.75 39 C2.56 40.11, 0.28 35.16, 0 29.25 M0 29.25 C0.6 24.79, 0.09 15.71, 0 9.75 M0 29.25 C0.66 21.17, -0.03 13.84, 0 9.75 M0 9.75 C1.2 2.09, 2.38 -0.05, 9.75 0 M0 9.75 C-1.19 1.37, 2.17 -1.07, 9.75 0" stroke="#1e1e1e" stroke-width="1" fill="none"></path></g><g stroke-linecap="round" transform="translate(259 431.5) rotate(0 119 25)"><path d="M12.5 0 M12.5 0 C81.77 -0.99, 150.2 -1.49, 225.5 0 M12.5 0 C90.62 1.63, 167.69 0.9, 225.5 0 M225.5 0 C235.78 -0.45, 237.35 2.82, 238 12.5 M225.5 0 C234.51 -1.26, 237.1 5.36, 238 12.5 M238 12.5 C237.71 20.08, 237.25 29.66, 238 37.5 M238 12.5 C237.65 17.34, 237.96 22.93, 238 37.5 M238 37.5 C238.2 46.26, 232.82 51.55, 225.5 50 M238 37.5 C239.56 47.45, 232.16 49.87, 225.5 50 M225.5 50 C144.22 50.36, 62.99 50.93, 12.5 50 M225.5 50 C147.39 50.75, 68.43 50.31, 12.5 50 M12.5 50 C6.11 49.43, -1.12 45.15, 0 37.5 M12.5 50 C2.9 48.56, -0.03 47.73, 0 37.5 M0 37.5 C1.86 32.87, -1.28 23.01, 0 12.5 M0 37.5 C0.39 26.87, 0.06 18.4, 0 12.5 M0 12.5 C1.72 2.58, 4.49 1.4, 12.5 0 M0 12.5 C1.83 5.98, 3.46 -0.24, 12.5 0" stroke="#1e1e1e" stroke-width="1" fill="none"></path></g><g transform="translate(704 582.5) rotate(0 29.79998016357422 12.5)"><text x="0" y="0" font-family="Virgil, Segoe UI Emoji" font-size="20px" fill="#1e1e1e" text-anchor="start" style="white-space: pre;" direction="ltr" dominant-baseline="text-before-edge">Enviar</text></g><g stroke-linecap="round" transform="translate(10 849) rotate(0 299.5 175)"><path d="M32 0 M32 0 C228.45 -0.67, 425.68 -0.59, 567 0 M32 0 C155.95 0.29, 279.28 0.65, 567 0 M567 0 C587.93 0.41, 598.59 9.55, 599 32 M567 0 C587.54 1.57, 598.69 12.94, 599 32 M599 32 C600.81 95.57, 600.72 160.97, 599 318 M599 32 C600.65 120.44, 600.75 209.75, 599 318 M599 318 C599.48 340.81, 588.37 351.79, 567 350 M599 318 C601.15 337.65, 589.79 351.96, 567 350 M567 350 C396.04 350.14, 225.02 350.24, 32 350 M567 350 C393.67 352.45, 221.01 351.98, 32 350 M32 350 C10.3 348.08, -1.33 338.16, 0 318 M32 350 C8.63 351.72, 2.27 337.98, 0 318 M0 318 C-2.54 221.87, -0.79 127.59, 0 32 M0 318 C-0.41 217.28, -1.03 116.6, 0 32 M0 32 C-0.74 11.13, 12.37 -0.81, 32 0 M0 32 C-0.84 11.41, 10.75 1.52, 32 0" stroke="#1e1e1e" stroke-width="1" fill="none"></path></g><g transform="translate(224 966) rotate(0 61.609962463378906 12.5)"><text x="0" y="0" font-family="Virgil, Segoe UI Emoji" font-size="20px" fill="#1e1e1e" text-anchor="start" style="white-space: pre;" direction="ltr" dominant-baseline="text-before-edge">Oscar 2023</text></g><g stroke-linecap="round" transform="translate(167 1002) rotate(0 123.5 17.5)"><path d="M8.75 0 M8.75 0 C85.57 1.62, 163.65 0.45, 238.25 0 M8.75 0 C70.93 -0.99, 132.35 -1.23, 238.25 0 M238.25 0 C243.44 0.65, 248.99 2.39, 247 8.75 M238.25 0 C242.34 0.27, 244.75 0.75, 247 8.75 M247 8.75 C248.62 14.87, 246.32 18.03, 247 26.25 M247 8.75 C246.41 13.18, 246.22 19.25, 247 26.25 M247 26.25 C246.99 33.84, 244.58 36.78, 238.25 35 M247 26.25 C244.89 33.47, 245.23 33.32, 238.25 35 M238.25 35 C153.13 34.79, 70.11 33.99, 8.75 35 M238.25 35 C175.42 34.73, 113.27 35.43, 8.75 35 M8.75 35 C2.21 35.86, 1.19 32.46, 0 26.25 M8.75 35 C3.75 35.31, -1.42 33.64, 0 26.25 M0 26.25 C0.28 18.76, -0.69 14.71, 0 8.75 M0 26.25 C0.06 20.56, 0.32 15.45, 0 8.75 M0 8.75 C1.37 1.03, 3.56 1.83, 8.75 0 M0 8.75 C-0.12 3.79, 4 -1.23, 8.75 0" stroke="#1e1e1e" stroke-width="1" fill="none"></path></g><g transform="translate(216.46006774902344 1007) rotate(0 74.03993225097656 12.5)"><text x="74.03993225097656" y="0" font-family="Virgil, Segoe UI Emoji" font-size="20px" fill="#1e1e1e" text-anchor="middle" style="white-space: pre;" direction="ltr" dominant-baseline="text-before-edge">insira seu nome</text></g><g stroke-linecap="round" transform="translate(233 1054) rotate(0 58 17.5)"><path d="M8.75 0 M8.75 0 C39.17 -2.11, 65.67 0.9, 107.25 0 M8.75 0 C45.72 0.41, 84.19 -0.02, 107.25 0 M107.25 0 C114.24 -1.15, 116.81 1.54, 116 8.75 M107.25 0 C113.46 -1.14, 114.1 1.13, 116 8.75 M116 8.75 C116.69 14.22, 116.57 23.94, 116 26.25 M116 8.75 C115.39 13.96, 116.93 19.61, 116 26.25 M116 26.25 C116.45 32.25, 112.32 34.74, 107.25 35 M116 26.25 C116.47 33.29, 110.88 35.25, 107.25 35 M107.25 35 C84.77 34.16, 61.11 33.95, 8.75 35 M107.25 35 C85.62 35.68, 62.63 34.93, 8.75 35 M8.75 35 C2.07 34.91, -0.1 31.3, 0 26.25 M8.75 35 C3.26 35.42, -2.27 29.86, 0 26.25 M0 26.25 C0.47 20.24, 0.85 14.18, 0 8.75 M0 26.25 C0.89 20.76, 0.9 15.95, 0 8.75 M0 8.75 C1.87 2.3, 1.99 0.58, 8.75 0 M0 8.75 C-1.57 1.78, 2.74 -1.25, 8.75 0" stroke="#1e1e1e" stroke-width="1" fill="none"></path></g><g transform="translate(263.14002227783203 1059) rotate(0 27.85997772216797 12.5)"><text x="27.85997772216797" y="0" font-family="Virgil, Segoe UI Emoji" font-size="20px" fill="#1e1e1e" text-anchor="middle" style="white-space: pre;" direction="ltr" dominant-baseline="text-before-edge">Jogar</text></g><g stroke-linecap="round" transform="translate(655.5 843) rotate(0 299.5 175)"><path d="M32 0 M32 0 C156.12 0.43, 280.29 1.25, 567 0 M32 0 C174.76 -0.4, 317.64 -0.27, 567 0 M567 0 C587.65 1.18, 600.94 10.91, 599 32 M567 0 C586.28 -0.72, 599.38 10.53, 599 32 M599 32 C595.84 101.5, 595.8 169.93, 599 318 M599 32 C600.11 96.24, 600.55 159.82, 599 318 M599 318 C598.99 337.52, 590.08 350.71, 567 350 M599 318 C600.95 340.73, 587.07 351.52, 567 350 M567 350 C433.98 350.66, 302.23 349.91, 32 350 M567 350 C444.81 349.81, 322.84 349.67, 32 350 M32 350 C10.76 348.58, -0.34 340.92, 0 318 M32 350 C12.77 350.39, 0.68 341.28, 0 318 M0 318 C2.1 251.66, 0.38 184.87, 0 32 M0 318 C0.38 220.45, 0.01 123.19, 0 32 M0 32 C0.35 10.49, 11.1 0.2, 32 0 M0 32 C-2.19 8.66, 11.04 1.15, 32 0" stroke="#1e1e1e" stroke-width="1" fill="none"></path></g><g transform="translate(749 908) rotate(0 54.18995666503906 37.5)"><text x="0" y="0" font-family="Virgil, Segoe UI Emoji" font-size="20px" fill="#1e1e1e" text-anchor="start" style="white-space: pre;" direction="ltr" dominant-baseline="text-before-edge">Pergunta 1:</text><text x="0" y="25" font-family="Virgil, Segoe UI Emoji" font-size="20px" fill="#1e1e1e" text-anchor="start" style="white-space: pre;" direction="ltr" dominant-baseline="text-before-edge"></text><text x="0" y="50" font-family="Virgil, Segoe UI Emoji" font-size="20px" fill="#1e1e1e" text-anchor="start" style="white-space: pre;" direction="ltr" dominant-baseline="text-before-edge"></text></g><g stroke-linecap="round" transform="translate(740 954) rotate(0 229.5 96)"><path d="M32 0 M32 0 C135.46 0.76, 238.77 0.98, 427 0 M32 0 C113.25 -0.65, 194.21 0.08, 427 0 M427 0 C447.06 -0.63, 458.22 9.18, 459 32 M427 0 C446.33 0.2, 457.83 9.86, 459 32 M459 32 C459.46 60.21, 458.38 87.27, 459 160 M459 32 C458.03 80.03, 458.46 126.98, 459 160 M459 160 C457.87 180.38, 446.37 191.94, 427 192 M459 160 C461.05 182.18, 446.49 192.64, 427 192 M427 192 C295.09 193.22, 163.48 192.32, 32 192 M427 192 C325.4 191.77, 223.65 191.7, 32 192 M32 192 C10.28 193.47, -0.32 179.5, 0 160 M32 192 C10.46 192.5, -1.81 183.24, 0 160 M0 160 C0.41 128.41, 0.18 93.04, 0 32 M0 160 C1.2 129.87, 1.19 102.02, 0 32 M0 32 C0.97 9.07, 12.57 -0.22, 32 0 M0 32 C0.23 12.3, 9.81 -1.16, 32 0" stroke="#1e1e1e" stroke-width="1" fill="none"></path></g><g stroke-linecap="round" transform="translate(761 980) rotate(0 8 8.5)"><path d="M8.18 -0.81 C9.88 -1.02, 10.72 0.79, 12.14 2.01 C13.55 3.24, 16.25 5.01, 16.66 6.55 C17.07 8.1, 15.52 9.69, 14.61 11.27 C13.69 12.85, 12.78 14.96, 11.18 16.02 C9.59 17.07, 6.63 17.94, 5.05 17.59 C3.46 17.24, 2.61 15.45, 1.66 13.91 C0.72 12.38, -0.79 10.3, -0.64 8.4 C-0.5 6.5, 1.25 3.78, 2.53 2.52 C3.81 1.26, 6.08 1.28, 7.04 0.83 C8 0.38, 8.12 -0.19, 8.27 -0.18 M7.12 -0.96 C8.8 -1.55, 10.51 -0.91, 11.93 0.31 C13.35 1.53, 15.13 4.32, 15.64 6.36 C16.15 8.4, 15.82 11.17, 14.98 12.56 C14.14 13.95, 12.09 13.78, 10.59 14.73 C9.09 15.67, 7.55 18.14, 5.97 18.23 C4.39 18.32, 2.23 16.99, 1.1 15.28 C-0.03 13.57, -1.13 10.19, -0.8 7.98 C-0.47 5.76, 1.67 3.12, 3.11 1.97 C4.54 0.83, 7 1.5, 7.79 1.12 C8.59 0.75, 8.08 -0.33, 7.87 -0.28" stroke="#1e1e1e" stroke-width="1" fill="none"></path></g><g stroke-linecap="round" transform="translate(759 1014) rotate(0 8.5 8.5)"><path d="M12.46 1.44 C14.14 1.86, 14.9 2.85, 15.68 4.45 C16.45 6.05, 17.55 9.4, 17.1 11.04 C16.66 12.69, 14.33 13.3, 12.99 14.29 C11.65 15.29, 10.89 17.05, 9.09 17.02 C7.29 17, 3.68 15.43, 2.17 14.15 C0.67 12.88, 0.31 11.08, 0.05 9.36 C-0.22 7.65, -0.47 5.5, 0.59 3.87 C1.65 2.24, 4.51 -0.02, 6.4 -0.41 C8.29 -0.81, 10.78 1.03, 11.95 1.5 C13.11 1.97, 13.5 2.27, 13.39 2.44 M6.39 -0.83 C8.27 -0.95, 12.3 0.05, 14.12 1.2 C15.94 2.35, 17.01 4.33, 17.31 6.08 C17.61 7.83, 16.86 10.21, 15.92 11.69 C14.99 13.17, 13.44 14.16, 11.7 14.97 C9.96 15.78, 7.21 16.63, 5.48 16.54 C3.75 16.46, 2.3 15.94, 1.31 14.46 C0.33 12.98, -0.85 9.56, -0.45 7.68 C-0.04 5.81, 2.22 4.46, 3.75 3.22 C5.27 1.98, 8.28 0.51, 8.68 0.23 C9.08 -0.05, 6.15 1.25, 6.16 1.55" stroke="#1e1e1e" stroke-width="1" fill="none"></path></g><g stroke-linecap="round" transform="translate(758 1041) rotate(0 8.5 10)"><path d="M9.63 0.15 C11.39 0.35, 13.61 1.78, 14.9 3.43 C16.2 5.08, 17.49 7.77, 17.41 10.06 C17.33 12.36, 15.75 15.56, 14.42 17.21 C13.1 18.87, 11.35 19.85, 9.46 19.99 C7.56 20.13, 4.64 19.3, 3.07 18.05 C1.49 16.81, 0.31 14.39, 0 12.51 C-0.31 10.64, 0.32 8.6, 1.22 6.81 C2.13 5.01, 3.58 2.53, 5.44 1.72 C7.31 0.91, 11.15 1.97, 12.41 1.96 C13.67 1.95, 12.94 1.63, 13.01 1.68 M4.15 2.09 C6.08 1.15, 10.14 -0.79, 12.13 -0.11 C14.12 0.58, 15.49 4.47, 16.08 6.21 C16.67 7.94, 15.9 8.43, 15.66 10.28 C15.43 12.13, 15.68 15.89, 14.67 17.3 C13.65 18.71, 11.56 18.6, 9.57 18.73 C7.58 18.86, 4.07 19.15, 2.72 18.09 C1.37 17.02, 1.79 14.71, 1.47 12.33 C1.14 9.94, -0.13 5.71, 0.79 3.78 C1.71 1.85, 5.95 1.11, 6.99 0.76 C8.03 0.42, 7.09 1.7, 7.02 1.7" stroke="#1e1e1e" stroke-width="1" fill="none"></path></g><g stroke-linecap="round" transform="translate(825 1098) rotate(0 135.5 20)"><path d="M10 0 M10 0 C104.03 1.87, 197.77 0.02, 261 0 M10 0 C65.95 0.27, 120.78 -0.67, 261 0 M261 0 C266.99 -1.96, 271.83 4.35, 271 10 M261 0 C266.21 0.66, 271.65 1.4, 271 10 M271 10 C271.52 13.2, 270.38 17.31, 271 30 M271 10 C270.93 17.3, 270.27 23.67, 271 30 M271 30 C271.26 35.08, 269.27 39.37, 261 40 M271 30 C271.01 35.91, 267.42 38.26, 261 40 M261 40 C178.36 39.1, 93.24 40.32, 10 40 M261 40 C163.94 39.45, 67.44 39.18, 10 40 M10 40 C5.02 41.68, 1.48 37.51, 0 30 M10 40 C3.71 39.86, 0.33 36.16, 0 30 M0 30 C1.41 23.75, 0.39 18.21, 0 10 M0 30 C-0.87 22.89, -0.93 15.86, 0 10 M0 10 C0.94 3.82, 1.47 0.3, 10 0 M0 10 C-2.23 3.3, 2.66 1.09, 10 0" stroke="#1e1e1e" stroke-width="1" fill="none"></path></g><g transform="translate(887 1107) rotate(0 86.3199234008789 12.5)"><text x="0" y="0" font-family="Virgil, Segoe UI Emoji" font-size="20px" fill="#1e1e1e" text-anchor="start" style="white-space: pre;" direction="ltr" dominant-baseline="text-before-edge">Proxima Pergunta</text></g><g stroke-linecap="round" transform="translate(25.5 1256) rotate(0 299.5 175)"><path d="M32 0 M32 0 C195.43 1.44, 358.34 0.22, 567 0 M32 0 C234.88 -1.23, 438.27 -0.78, 567 0 M567 0 C589.18 0.13, 598.04 10.16, 599 32 M567 0 C590.05 0.94, 598.85 10.77, 599 32 M599 32 C598.55 145.51, 598.27 258.79, 599 318 M599 32 C598.03 123.73, 598.03 216.81, 599 318 M599 318 C598.49 337.46, 587.34 351.79, 567 350 M599 318 C599.07 337.09, 587.11 348.43, 567 350 M567 350 C386.08 349.48, 204.48 349.75, 32 350 M567 350 C419.6 348.12, 271.67 348.18, 32 350 M32 350 C9.29 350.08, 0.69 341.24, 0 318 M32 350 C9.36 350.54, 1.11 338.53, 0 318 M0 318 C-0.45 254.36, -1.05 188.65, 0 32 M0 318 C-1.77 243.24, -1.75 166.53, 0 32 M0 32 C-0.96 9.93, 9.22 -0.95, 32 0 M0 32 C0.41 10.53, 11.5 -0.94, 32 0" stroke="#1e1e1e" stroke-width="1" fill="none"></path></g><g transform="translate(119 1321) rotate(0 58.599952697753906 12.5)"><text x="0" y="0" font-family="Virgil, Segoe UI Emoji" font-size="20px" fill="#1e1e1e" text-anchor="start" style="white-space: pre;" direction="ltr" dominant-baseline="text-before-edge">Pergunta 2:</text></g><g stroke-linecap="round" transform="translate(110 1367) rotate(0 229.5 96)"><path d="M32 0 M32 0 C178.8 2.23, 324.31 0.82, 427 0 M32 0 C129.31 -1.29, 225.86 -1.48, 427 0 M427 0 C449.83 0.82, 458.87 10.76, 459 32 M427 0 C450.52 -1.98, 461.06 12.82, 459 32 M459 32 C460.43 73.97, 461.22 117.2, 459 160 M459 32 C458.54 57.91, 458.29 86.59, 459 160 M459 160 C459.06 179.38, 447.27 190.64, 427 192 M459 160 C459.88 181.85, 448.31 192.12, 427 192 M427 192 C332.79 190.76, 238.13 192.14, 32 192 M427 192 C309.59 192.31, 193.17 192.84, 32 192 M32 192 C9.53 192.47, 0.97 180.63, 0 160 M32 192 C8.93 193.48, 1.17 182.77, 0 160 M0 160 C-1.02 118.61, -0.67 73.81, 0 32 M0 160 C-0.21 110.85, -0.45 61.95, 0 32 M0 32 C0.36 10.55, 11.39 -0.82, 32 0 M0 32 C0.51 12.83, 12.04 -1.11, 32 0" stroke="#1e1e1e" stroke-width="1" fill="none"></path></g><g stroke-linecap="round" transform="translate(131 1393) rotate(0 8 8.5)"><path d="M5.01 1.32 C6.52 0.47, 8.39 -0.72, 9.92 -0.25 C11.45 0.23, 13.09 2.65, 14.17 4.18 C15.25 5.71, 16.45 7.09, 16.4 8.94 C16.34 10.79, 15.25 13.81, 13.86 15.29 C12.47 16.78, 9.61 17.73, 8.06 17.84 C6.5 17.95, 5.69 17, 4.53 15.94 C3.37 14.87, 1.69 13.32, 1.09 11.46 C0.48 9.59, -0.03 6.62, 0.89 4.73 C1.81 2.84, 5.65 0.9, 6.63 0.11 C7.62 -0.67, 6.86 -0.11, 6.79 0.01 M4.44 -0.55 C5.84 -1.82, 7.28 -1.51, 9.03 -0.8 C10.79 -0.08, 13.83 2.1, 14.98 3.75 C16.14 5.39, 16.32 7.48, 15.97 9.06 C15.63 10.64, 14.14 11.97, 12.9 13.23 C11.65 14.48, 10.19 16.4, 8.52 16.58 C6.84 16.76, 4.03 15.25, 2.84 14.3 C1.65 13.35, 1.71 12.39, 1.36 10.9 C1.01 9.4, 0.4 6.99, 0.73 5.34 C1.07 3.68, 2.66 1.45, 3.37 0.97 C4.08 0.5, 4.9 2.32, 4.98 2.49" stroke="#1e1e1e" stroke-width="1" fill="none"></path></g><g stroke-linecap="round" transform="translate(129 1427) rotate(0 8.5 8.5)"><path d="M6.14 -0.13 C7.63 -0.67, 9.9 0.65, 11.63 1.45 C13.36 2.24, 15.65 2.97, 16.51 4.64 C17.38 6.3, 17.45 9.5, 16.81 11.43 C16.18 13.36, 14.01 15.24, 12.7 16.22 C11.39 17.21, 10.48 17.5, 8.93 17.33 C7.38 17.15, 4.85 16.57, 3.41 15.2 C1.97 13.83, 0.52 11, 0.29 9.08 C0.06 7.15, 1.14 5.16, 2.03 3.66 C2.93 2.16, 4.83 0.66, 5.67 0.06 C6.52 -0.55, 7.06 -0.05, 7.09 0.03 M11.38 -0.19 C13.07 0.76, 15.93 3.49, 16.82 5.33 C17.7 7.17, 17.41 9.35, 16.67 10.87 C15.93 12.39, 13.94 13.46, 12.37 14.42 C10.79 15.37, 9.03 16.81, 7.24 16.6 C5.45 16.39, 2.68 14.39, 1.65 13.14 C0.62 11.88, 1.04 10.66, 1.05 9.09 C1.05 7.52, 0.96 5.2, 1.68 3.74 C2.39 2.28, 3.53 0.57, 5.36 0.33 C7.2 0.08, 11.71 2.1, 12.69 2.27 C13.67 2.44, 11.28 1.54, 11.25 1.34" stroke="#1e1e1e" stroke-width="1" fill="none"></path></g><g stroke-linecap="round" transform="translate(128 1454) rotate(0 8.5 10)"><path d="M10.03 0.97 C11.81 1.34, 14.45 2.07, 15.62 3.8 C16.79 5.52, 17.32 9.02, 17.04 11.32 C16.76 13.63, 15.01 16.12, 13.94 17.61 C12.87 19.09, 12.13 20.01, 10.6 20.25 C9.07 20.48, 6.39 20.26, 4.73 19 C3.07 17.73, 1.22 14.83, 0.64 12.67 C0.06 10.52, 0.76 8.02, 1.25 6.07 C1.75 4.13, 1.92 1.94, 3.63 1 C5.34 0.05, 10.17 0.41, 11.51 0.4 C12.86 0.4, 11.59 0.78, 11.69 0.99 M5.09 1.5 C6.7 0.62, 8.73 0.09, 10.26 0.3 C11.79 0.51, 13.22 1.14, 14.27 2.76 C15.32 4.37, 16.61 7.89, 16.57 10 C16.53 12.11, 15.01 13.75, 14.04 15.39 C13.06 17.03, 12.36 19.3, 10.7 19.85 C9.04 20.39, 5.96 19.78, 4.07 18.67 C2.19 17.55, -0.13 14.97, -0.62 13.14 C-1.1 11.31, 0.42 9.61, 1.14 7.67 C1.85 5.74, 2.97 2.66, 3.67 1.52 C4.36 0.37, 5.3 0.57, 5.32 0.82" stroke="#1e1e1e" stroke-width="1" fill="none"></path></g><g stroke-linecap="round" transform="translate(195 1511) rotate(0 135.5 20)"><path d="M10 0 M10 0 C70.9 -1.65, 131.18 0.35, 261 0 M10 0 C96.35 -0.8, 181.89 0.67, 261 0 M261 0 C268.35 1.51, 272.06 3.8, 271 10 M261 0 C266.76 1.44, 270.64 1.26, 271 10 M271 10 C269.13 14.68, 272.79 21.41, 271 30 M271 10 C271.28 14.27, 270.88 18.15, 271 30 M271 30 C269.76 35.2, 267.1 39.52, 261 40 M271 30 C269.81 34.66, 269.23 39.91, 261 40 M261 40 C184.36 39.16, 109.14 37.67, 10 40 M261 40 C179.2 39.81, 99.05 39.79, 10 40 M10 40 C4.03 40.46, -1.33 35.94, 0 30 M10 40 C5.03 39.56, -0.53 38.53, 0 30 M0 30 C-0.55 22.98, -0.77 19.19, 0 10 M0 30 C0.15 25.06, 0.53 17.75, 0 10 M0 10 C0.05 3.71, 5.19 0.85, 10 0 M0 10 C1.96 4.73, 4.9 -1.64, 10 0" stroke="#1e1e1e" stroke-width="1" fill="none"></path></g><g transform="translate(257 1520) rotate(0 86.3199234008789 12.5)"><text x="0" y="0" font-family="Virgil, Segoe UI Emoji" font-size="20px" fill="#1e1e1e" text-anchor="start" style="white-space: pre;" direction="ltr" dominant-baseline="text-before-edge">Proxima Pergunta</text></g><g stroke-linecap="round" transform="translate(681.5 1262) rotate(0 299.5 175)"><path d="M32 0 M32 0 C155.33 -1.96, 278.48 -2.39, 567 0 M32 0 C233.24 -0.38, 434.46 -1.03, 567 0 M567 0 C589.57 -0.41, 599.48 9.68, 599 32 M567 0 C587.43 -0.42, 597.71 11.11, 599 32 M599 32 C600.87 104.67, 600.69 177.21, 599 318 M599 32 C600.76 96.04, 600.66 160.11, 599 318 M599 318 C597.89 340.57, 587.89 349.95, 567 350 M599 318 C601.02 337.69, 590.33 349.26, 567 350 M567 350 C403.43 348.88, 240.54 347.75, 32 350 M567 350 C416.83 351.51, 266.56 351.49, 32 350 M32 350 C12.08 350.59, 1.26 337.96, 0 318 M32 350 C12.8 348.62, 0.38 341.26, 0 318 M0 318 C0.13 255.71, -0.09 192.48, 0 32 M0 318 C-1.48 207.95, -1.64 98.65, 0 32 M0 32 C1.62 11.69, 9.55 0.85, 32 0 M0 32 C2.29 9.39, 11.83 -1.22, 32 0" stroke="#1e1e1e" stroke-width="1" fill="none"></path></g><g transform="translate(775 1327) rotate(0 58.289955139160156 12.5)"><text x="0" y="0" font-family="Virgil, Segoe UI Emoji" font-size="20px" fill="#1e1e1e" text-anchor="start" style="white-space: pre;" direction="ltr" dominant-baseline="text-before-edge">Pergunta 3:</text></g><g stroke-linecap="round" transform="translate(766 1373) rotate(0 229.5 96)"><path d="M32 0 M32 0 C146.49 1.92, 259.6 2.03, 427 0 M32 0 C181.26 1.8, 329.95 1.64, 427 0 M427 0 C447.55 -0.36, 457.88 11.05, 459 32 M427 0 C447.29 0.52, 459.22 12.75, 459 32 M459 32 C458.51 70.33, 461.35 108.02, 459 160 M459 32 C459.27 67.09, 459.61 100.92, 459 160 M459 160 C460.76 179.9, 450.07 191.36, 427 192 M459 160 C459.11 183.28, 446.45 190.28, 427 192 M427 192 C277.41 191.46, 129.1 191.06, 32 192 M427 192 C314.51 191.74, 201.56 191.18, 32 192 M32 192 C12.52 190.8, 0.33 183.01, 0 160 M32 192 C8.76 191.68, 0.76 181.07, 0 160 M0 160 C2.03 124.91, -0.68 87.31, 0 32 M0 160 C0.6 122.11, -0.78 83.62, 0 32 M0 32 C1.99 9.56, 11.67 -1.06, 32 0 M0 32 C0.82 12.4, 12.03 0.31, 32 0" stroke="#1e1e1e" stroke-width="1" fill="none"></path></g><g stroke-linecap="round" transform="translate(787 1399) rotate(0 8 8.5)"><path d="M8.92 0.83 C10.36 1, 13.06 2.31, 14.16 3.59 C15.26 4.88, 15.57 6.83, 15.5 8.51 C15.42 10.2, 14.74 12.38, 13.7 13.71 C12.65 15.04, 10.83 16.14, 9.2 16.48 C7.57 16.82, 5.22 16.67, 3.9 15.74 C2.58 14.82, 1.68 12.73, 1.27 10.93 C0.85 9.13, 1.03 6.53, 1.41 4.95 C1.8 3.38, 1.83 2.06, 3.58 1.49 C5.34 0.91, 10.49 1.36, 11.93 1.51 C13.37 1.65, 12.49 2.44, 12.23 2.35 M11.75 -0.67 C13.6 -0.32, 15.35 1.55, 16.06 3.48 C16.77 5.41, 16.65 9.21, 16 10.91 C15.35 12.61, 13.24 12.81, 12.16 13.66 C11.07 14.52, 11.16 15.81, 9.49 16.02 C7.83 16.23, 3.52 15.71, 2.16 14.94 C0.81 14.17, 1.45 13.17, 1.35 11.41 C1.25 9.64, 0.8 6.18, 1.55 4.34 C2.3 2.49, 4.19 0.94, 5.85 0.35 C7.51 -0.23, 10.58 0.98, 11.49 0.84 C12.4 0.7, 11.31 -0.38, 11.33 -0.47" stroke="#1e1e1e" stroke-width="1" fill="none"></path></g><g stroke-linecap="round" transform="translate(785 1433) rotate(0 8.5 8.5)"><path d="M11.67 0.94 C13.36 1.36, 14.78 2.8, 15.6 4.3 C16.43 5.79, 16.9 8.15, 16.59 9.91 C16.28 11.67, 15.16 13.67, 13.76 14.87 C12.37 16.06, 9.93 17.13, 8.23 17.08 C6.53 17.03, 4.8 15.9, 3.57 14.59 C2.34 13.28, 1.33 10.92, 0.85 9.22 C0.36 7.52, -0.33 5.72, 0.65 4.37 C1.63 3.02, 4.6 1.44, 6.74 1.13 C8.87 0.81, 12.16 2.17, 13.47 2.48 C14.78 2.79, 14.53 3, 14.6 2.97 M9.69 -0.48 C11.21 -0.22, 12.96 2.14, 13.95 3.19 C14.94 4.24, 15.1 4.38, 15.63 5.8 C16.15 7.21, 17.93 9.96, 17.09 11.68 C16.24 13.41, 12.27 15.18, 10.56 16.17 C8.86 17.15, 8.32 18.21, 6.86 17.62 C5.41 17.03, 2.81 14.42, 1.83 12.63 C0.85 10.83, 0.63 8.53, 1 6.85 C1.36 5.16, 2.62 3.81, 4.01 2.5 C5.4 1.18, 8.37 -0.49, 9.34 -1.03 C10.3 -1.57, 9.9 -1.25, 9.79 -0.73" stroke="#1e1e1e" stroke-width="1" fill="none"></path></g><g stroke-linecap="round" transform="translate(784 1460) rotate(0 8.5 10)"><path d="M10.58 0.08 C12.27 0.44, 14.41 2.29, 15.5 4.09 C16.59 5.89, 17.29 8.64, 17.12 10.88 C16.94 13.11, 15.68 15.98, 14.45 17.49 C13.23 18.99, 11.48 19.87, 9.76 19.9 C8.03 19.93, 5.82 18.86, 4.1 17.66 C2.38 16.45, -0.15 14.6, -0.56 12.68 C-0.97 10.76, 0.72 8.01, 1.64 6.13 C2.56 4.25, 3.41 2.4, 4.96 1.4 C6.51 0.39, 9.69 0.2, 10.95 0.11 C12.22 0.01, 12.5 0.45, 12.54 0.84 M5.59 1.9 C6.75 0.96, 8.21 -0.89, 10.11 -0.55 C12.01 -0.21, 16.02 1.96, 17 3.95 C17.97 5.94, 16.24 8.91, 15.94 11.37 C15.64 13.82, 16.31 17.3, 15.19 18.7 C14.07 20.1, 11.08 20, 9.21 19.79 C7.34 19.58, 5.31 18.69, 3.98 17.43 C2.64 16.18, 1.52 14.49, 1.2 12.26 C0.88 10.03, 1.09 6.13, 2.04 4.04 C3 1.96, 6.28 0.06, 6.92 -0.27 C7.55 -0.59, 6.22 1.81, 5.83 2.08" stroke="#1e1e1e" stroke-width="1" fill="none"></path></g><g stroke-linecap="round" transform="translate(851 1517) rotate(0 135.5 20)"><path d="M10 0 M10 0 C105.44 -0.87, 200.75 -1.9, 261 0 M10 0 C80.4 -0.2, 151.61 0.35, 261 0 M261 0 C267.49 1.58, 270.48 1.83, 271 10 M261 0 C268.91 1.54, 272.77 2.63, 271 10 M271 10 C272.12 16.85, 270.83 26.34, 271 30 M271 10 C271.22 15.42, 270.36 18.39, 271 30 M271 30 C272.56 35.37, 266.41 39.62, 261 40 M271 30 C272.79 38.35, 268.64 39.67, 261 40 M261 40 C171.37 42.47, 79.66 42.96, 10 40 M261 40 C200.07 41.6, 140.76 41.62, 10 40 M10 40 C3.07 39.47, -1.76 38.36, 0 30 M10 40 C5.21 38.83, 0.86 36.67, 0 30 M0 30 C0.83 22.54, 0.65 19.31, 0 10 M0 30 C0.26 25.86, 0.49 20.35, 0 10 M0 10 C0.36 3.88, 1.93 -0.33, 10 0 M0 10 C1.41 5.03, 2.34 0.83, 10 0" stroke="#1e1e1e" stroke-width="1" fill="none"></path></g><g transform="translate(913 1526) rotate(0 86.3199234008789 12.5)"><text x="0" y="0" font-family="Virgil, Segoe UI Emoji" font-size="20px" fill="#1e1e1e" text-anchor="start" style="white-space: pre;" direction="ltr" dominant-baseline="text-before-edge">Proxima Pergunta</text></g><g stroke-linecap="round" transform="translate(33.5 1649) rotate(0 299.5 175)"><path d="M32 0 M32 0 C228.98 0.91, 427.06 0.6, 567 0 M32 0 C187.02 -1.74, 341.92 -1.72, 567 0 M567 0 C588.82 0.28, 599.02 11.07, 599 32 M567 0 C586.1 0.96, 599.77 10.78, 599 32 M599 32 C600.37 111.74, 601.2 193.26, 599 318 M599 32 C598.25 134, 598.32 235.89, 599 318 M599 318 C598.59 340.31, 586.74 349.57, 567 350 M599 318 C600.5 339.76, 587.96 348.58, 567 350 M567 350 C385.18 350.6, 203.91 350.51, 32 350 M567 350 C424.96 348.2, 281.88 347.9, 32 350 M32 350 C10.24 348.03, -0.07 340.19, 0 318 M32 350 C9.12 349.82, -1.73 337.2, 0 318 M0 318 C2.14 255.92, 0.37 197.53, 0 32 M0 318 C-1.82 235.08, -1.97 152.77, 0 32 M0 32 C-0.57 12.08, 9.26 -1.82, 32 0 M0 32 C-0.28 9.96, 11.96 1.06, 32 0" stroke="#1e1e1e" stroke-width="1" fill="none"></path></g><g transform="translate(267 1776) rotate(0 54.969947814941406 12.5)"><text x="0" y="0" font-family="Virgil, Segoe UI Emoji" font-size="20px" fill="#1e1e1e" text-anchor="start" style="white-space: pre;" direction="ltr" dominant-baseline="text-before-edge">Resultados</text></g><g stroke-linecap="round" transform="translate(234 1807) rotate(0 101 19)"><path d="M9.5 0 M9.5 0 C71.8 -2.13, 133.55 1.01, 192.5 0 M9.5 0 C79.84 1.63, 148.67 2.26, 192.5 0 M192.5 0 C197.43 -1.16, 200.56 1.34, 202 9.5 M192.5 0 C196.58 -1.56, 203.61 2.74, 202 9.5 M202 9.5 C200.69 13.44, 200.91 18.16, 202 28.5 M202 9.5 C201.92 14.51, 201.37 20.42, 202 28.5 M202 28.5 C203.84 33.57, 197.32 37.93, 192.5 38 M202 28.5 C204.2 33.64, 200.62 39.71, 192.5 38 M192.5 38 C145.41 35.71, 100.19 38.41, 9.5 38 M192.5 38 C120.82 37.94, 48.3 38.31, 9.5 38 M9.5 38 C3.18 37.16, -1.52 36.37, 0 28.5 M9.5 38 C2.13 35.82, 1.47 33.57, 0 28.5 M0 28.5 C-0.89 20.05, -1.82 13.63, 0 9.5 M0 28.5 C0.24 23.83, -0.67 17.6, 0 9.5 M0 9.5 C1.62 2.64, 4.83 -1.7, 9.5 0 M0 9.5 C-0.41 3.23, 3.02 -0.89, 9.5 0" stroke="#1e1e1e" stroke-width="1" fill="none"></path></g><g transform="translate(245 1816) rotate(0 88.4599380493164 12.5)"><text x="0" y="0" font-family="Virgil, Segoe UI Emoji" font-size="20px" fill="#1e1e1e" text-anchor="start" style="white-space: pre;" direction="ltr" dominant-baseline="text-before-edge">Voce acertou 2/3</text></g><g transform="translate(312 787) rotate(0 50.83197784423828 10)"><text x="0" y="0" font-family="Virgil, Segoe UI Emoji" font-size="16px" fill="#1e1e1e" text-anchor="start" style="white-space: pre;" direction="ltr" dominant-baseline="text-before-edge">Layout Final:</text></g><g transform="translate(361 10) rotate(0 96.51995086669922 10)"><text x="0" y="0" font-family="Virgil, Segoe UI Emoji" font-size="16px" fill="#1e1e1e" text-anchor="start" style="white-space: pre;" direction="ltr" dominant-baseline="text-before-edge">Primeira ideia de Layout</text></g></svg>